# xmcd CD Database Entry
#
# Track frame offsets:
# 150
# 20737
# 34756
# 55259
# 71299
# 85128
# 97434
# 110799
# 121033
# 135328
# 142124
# 158958
# 178528
# 194024
# 207231
# 221519
# 233644
# 252179
# 267970
# 283928
# 297001
# 311410
# 326718
# 340591
#
# Disc length: 4726 seconds
#
# Revision: 3
# Processed by: cddbd v1.4PL0 Copyright (c) Steve Scherf et al.
# Submitted via: tcd 2.0b
#
DISCID=6f127418
DTITLE=New Roanoke Jug Band - play it for a long time
DYEAR=1900
DGENRE=
TTITLE0=Cornshukin'/Hot Times
TTITLE1=Texas Triangle Blues Fair
TTITLE2=Dance the Georgia Pause
TTITLE3=Been on the Job Too Long
TTITLE4=She Shook it on the Corner
TTITLE5=Chinquapin - Last Chance
TTITLE6=When Those Two Towers Fell
TTITLE7=Garfield
TTITLE8=The Highwayman
TTITLE9=Black Annie
TTITLE10=France Blues
TTITLE11=Home Brew Rag
TTITLE12=Bamalong Blues
TTITLE13=Unnamed Blues
TTITLE14=Stone's Rag Mountain Rag
TTITLE15=Tough Luck
TTITLE16=Right Now Blues
TTITLE17=Chain Gang Special
TTITLE18=Crystal Stream Waltz
TTITLE19=We are almost down to the Shore
TTITLE20=Stone Mountain Rag
TTITLE21=Johnny Lover
TTITLE22=Traingle Blues
TTITLE23=Home Brew Rag
EXTD=
EXTT0=
EXTT1=
EXTT2=
EXTT3=
EXTT4=
EXTT5=
EXTT6=
EXTT7=\n
EXTT8=
EXTT9=
EXTT10=
EXTT11=
EXTT12=
EXTT13=
EXTT14=
EXTT15=
EXTT16=
EXTT17=
EXTT18=
EXTT19=
EXTT20=
EXTT21=
EXTT22=
EXTT23=
PLAYORDER=
